<?xml version="1.0" encoding="UTF-8"?>
<svg width="31px" height="273px" viewBox="0 0 31 273" version="1.1" xmlns="http://www.w3.org/2000/svg" xmlns:xlink="http://www.w3.org/1999/xlink">
    <!-- Generator: sketchtool 64 (101010) - https://sketch.com -->
    <title>20D360E2-DA44-451A-A9A3-B2CAE02B617B@1.00x</title>
    <desc>Created with sketchtool.</desc>
    <g id="Developer---Concept-Mockup" stroke="none" stroke-width="1" fill="none" fill-rule="evenodd">
        <g id="XL---ESC-Frontend-Developer-Task" transform="translate(-75.000000, -61.000000)" fill="#FFFFFF" fill-rule="nonzero">
            <g id="Hero-section" transform="translate(0.000000, -1.000000)">
                <g id="Eastside-Co-Logo" transform="translate(90.500000, 198.500000) rotate(-90.000000) translate(-90.500000, -198.500000) translate(-46.000000, 183.000000)">
                    <polygon id="Path" points="2.92209632 15.4270998 2.92209632 25.3161648 15.5 25.3161648 15.5 27.5 0.5 27.5 0.5 1.5 15.4575071 1.5 15.4575071 3.68383518 2.92209632 3.68383518 2.92209632 13.2432647 9.5509915 13.2432647 9.5509915 15.4270998 2.92209632 15.4270998"></polygon>
                    <path d="M34.0330579,2 L35.6859504,2 L48,31 L45.4793388,31 L42.0495868,22.8751734 L27.4214876,22.8751734 L25.4793388,27.3398058 L23,27.3398058 L34.0330579,2 Z M28.3719008,20.7836338 L41.0991736,20.7836338 L34.8181818,5.90152566 L28.3719008,20.7836338 Z" id="Shape"></path>
                    <path d="M59.2668464,25.75 C62.2183288,25.6666667 64.5229111,24.375 65.2102426,22.8333333 C65.6954178,21.7916667 65.6954178,20.7083333 65.6954178,20.7083333 C65.6954178,18.6666667 64.6037736,16.75 61.6522911,15.4583333 L58.4177898,14.1666667 C54.9407008,12.75 53,10.7916667 53,7.54166667 C53,3.70833333 56.1132075,1 60.0350404,1 C62.2587601,1 63.9973046,1.66666667 64.6037736,1.95833333 C65.4932615,2.375 66.1401617,2.875 66.5849057,3.25 C66.2614555,4.04166667 65.9784367,4.83333333 65.6549865,5.58333333 C64.1590296,4.16666667 62.3800539,3.25 59.9946092,3.25 C57.3261456,3.25 55.2641509,4.83333333 55.2641509,7.45833333 C55.2641509,9.29166667 56.1940701,10.7083333 59.3072776,11.9583333 L62.541779,13.2916667 C66.4636119,14.9166667 68,17.4583333 68,20.625 C68,21.0416667 67.9595687,22.9166667 66.8679245,24.6666667 C64.7654987,28 60.5202156,28 60.1967655,28" id="Path"></path>
                    <polygon id="Path" points="77 2 97 2 97 4.22503962 88.2033195 4.22503962 88.2033195 28 85.8381743 28 85.8381743 4.22503962 77 4.22503962"></polygon>
                    <path d="M103.5,24.0304096 C103.89312,23.2794391 104.286241,22.5701892 104.679361,21.8192186 C106.212531,23.6966449 108.885749,25.2403066 111.59828,25.2403066 C115.018428,25.2403066 117.219902,23.1125568 117.219902,20.2338364 C117.219902,18.1895278 116.158477,16.2703809 113.288698,14.9770428 L110.143735,13.6837047 C106.762899,12.2652048 104.875921,10.3043373 104.875921,7.05013175 C104.875921,3.21183799 107.902948,0.5 111.716216,0.5 C113.878378,0.5 115.568796,1.16752935 116.158477,1.45957344 C116.984029,1.87677929 117.613022,2.33570571 118.045455,2.71119097 C117.77027,3.50388208 117.495086,4.29657318 117.219902,5.08926429 C115.765356,3.67076442 114.035627,2.75291156 111.755528,2.75291156 C109.160934,2.75291156 107.116708,4.33829377 107.116708,6.96669058 C107.116708,8.8023963 108.020885,10.2208962 111.047912,11.4725137 L114.192875,12.8075724 C118.006143,14.4346752 119.5,16.9796308 119.5,20.1503953 C119.5,21.6940569 119.10688,23.0708362 118.399263,24.1972919 C116.433661,27.2846152 112.541769,27.4514975 111.59828,27.4932181 C107.195332,27.6601005 104.207617,24.697939 103.5,24.0304096 Z" id="Path"></path>
                    <polygon id="Path" points="130.5 1.5 133.5 1.5 133.5 27.5 130.5 27.5"></polygon>
                    <path d="M146,2 L152.708595,2 C159.752621,2 166,7.64500792 166,14.9793978 C166,22.2725832 160.171908,28 152.792453,28 L146,28 L146,2 Z M148.348008,4.22503962 L148.348008,25.7749604 L152.87631,25.7749604 C158.914046,25.7749604 163.568134,20.9128368 163.568134,14.9793978 C163.568134,8.92234548 158.494759,4.22503962 152.708595,4.22503962 L148.348008,4.22503962 Z" id="Shape"></path>
                    <polygon id="Path" points="176.922096 15.4270998 176.922096 25.3161648 189.5 25.3161648 189.5 27.5 174.5 27.5 174.5 1.5 189.457507 1.5 189.457507 3.68383518 176.922096 3.68383518 176.922096 13.2432647 183.593484 13.2432647 183.593484 15.4270998 176.922096 15.4270998"></polygon>
                    <path d="M217.5,14 C217.5,6.52752294 223.297834,0.5 230.48556,0.5 C233.861011,0.5 236.918773,1.86238532 239.261733,4.05045872 L237.673285,5.74311927 C235.767148,3.9266055 233.225632,2.81192661 230.48556,2.81192661 C224.528881,2.81192661 219.803249,7.76605505 219.803249,14.0412844 C219.803249,20.2752294 224.528881,25.2293578 230.48556,25.2293578 C233.384477,25.2293578 235.965704,24.0321101 237.871841,22.1330275 L239.5,23.7018349 C237.15704,26.0550459 233.980144,27.5 230.48556,27.5 C223.297834,27.4587156 217.5,21.4311927 217.5,14 Z" id="Path"></path>
                    <path d="M246,14.5206738 C246,7.03675345 252.068807,1 259.5,1 C266.931193,1 273,7.03675345 273,14.5206738 C273,21.9632466 266.931193,28 259.5,28 C252.068807,28 246,21.9632466 246,14.5206738 Z M270.646789,14.5206738 C270.646789,8.23583461 265.692661,3.27411945 259.541284,3.27411945 C253.348624,3.27411945 248.43578,8.23583461 248.43578,14.5206738 C248.43578,20.7641654 253.348624,25.7258806 259.541284,25.7258806 C265.733945,25.7258806 270.646789,20.7641654 270.646789,14.5206738 Z" id="Shape"></path>
                </g>
            </g>
        </g>
    </g>
</svg>